<mxfile host="Electron" modified="2024-04-03T14:44:56.185Z" agent="Mozilla/5.0 (Windows NT 10.0; Win64; x64) AppleWebKit/537.36 (KHTML, like Gecko) draw.io/24.1.0 Chrome/120.0.6099.109 Electron/28.1.0 Safari/537.36" etag="BjJidxGMQiCz1leSQpL7" version="24.1.0" type="device">
  <diagram name="Page-1" id="EmwzgHjXN4L9OG_YRLbm">
    <mxGraphModel dx="1653" dy="1154" grid="1" gridSize="10" guides="1" tooltips="1" connect="1" arrows="1" fold="1" page="1" pageScale="1" pageWidth="1100" pageHeight="1700" math="0" shadow="0">
      <root>
        <mxCell id="0" />
        <mxCell id="1" parent="0" />
        <mxCell id="mT0i5QPfRz2XoGuQts4a-15" value="" style="endArrow=classic;html=1;rounded=0;targetPerimeterSpacing=4;strokeColor=default;startArrow=none;startFill=0;endFill=1;strokeWidth=3;" parent="1" source="mT0i5QPfRz2XoGuQts4a-7" edge="1">
          <mxGeometry width="50" height="50" relative="1" as="geometry">
            <mxPoint x="785" y="568" as="sourcePoint" />
            <mxPoint x="870" y="369" as="targetPoint" />
          </mxGeometry>
        </mxCell>
        <mxCell id="mT0i5QPfRz2XoGuQts4a-14" value="" style="endArrow=classic;html=1;rounded=0;exitX=0.917;exitY=-0.017;exitDx=0;exitDy=0;targetPerimeterSpacing=4;strokeColor=default;startArrow=none;startFill=0;endFill=1;strokeWidth=3;exitPerimeter=0;" parent="1" source="mT0i5QPfRz2XoGuQts4a-8" edge="1">
          <mxGeometry width="50" height="50" relative="1" as="geometry">
            <mxPoint x="755" y="499" as="sourcePoint" />
            <mxPoint x="820" y="369" as="targetPoint" />
          </mxGeometry>
        </mxCell>
        <mxCell id="kKCmZU7g9CsREEnNZsZf-8" value="Application Build Pipeline" style="rounded=1;whiteSpace=wrap;html=1;fontSize=22;fontStyle=0;labelPosition=center;verticalLabelPosition=top;align=center;verticalAlign=bottom;" parent="1" vertex="1">
          <mxGeometry x="190" y="320" width="316" height="120" as="geometry" />
        </mxCell>
        <mxCell id="bC7OHCeX101TMUWNberd-2" value="ace-demo-pipeline" style="dashed=0;outlineConnect=0;html=1;align=center;labelPosition=center;verticalLabelPosition=bottom;verticalAlign=top;shape=mxgraph.weblogos.github;fontSize=18;fontStyle=0" parent="1" vertex="1">
          <mxGeometry x="37" y="336" width="75" height="75" as="geometry" />
        </mxCell>
        <mxCell id="kKCmZU7g9CsREEnNZsZf-9" value="Build" style="rounded=0;whiteSpace=wrap;html=1;fontSize=22;fillColor=#ffe6cc;strokeColor=#d79b00;fontStyle=0" parent="1" vertex="1">
          <mxGeometry x="202" y="350" width="90" height="60" as="geometry" />
        </mxCell>
        <mxCell id="kKCmZU7g9CsREEnNZsZf-10" value="Test" style="rounded=0;whiteSpace=wrap;html=1;fontSize=22;fillColor=#ffe6cc;strokeColor=#d79b00;fontStyle=0" parent="1" vertex="1">
          <mxGeometry x="302" y="350" width="90" height="60" as="geometry" />
        </mxCell>
        <mxCell id="mT0i5QPfRz2XoGuQts4a-5" style="edgeStyle=orthogonalEdgeStyle;rounded=0;orthogonalLoop=1;jettySize=auto;html=1;exitX=1;exitY=0.5;exitDx=0;exitDy=0;entryX=0;entryY=0.5;entryDx=0;entryDy=0;strokeWidth=3;" parent="1" source="4X8OJqOi4j79PQFWo-uC-6" target="mT0i5QPfRz2XoGuQts4a-3" edge="1">
          <mxGeometry relative="1" as="geometry">
            <Array as="points">
              <mxPoint x="540" y="380" />
              <mxPoint x="540" y="429" />
            </Array>
          </mxGeometry>
        </mxCell>
        <mxCell id="4X8OJqOi4j79PQFWo-uC-6" value="Deploy" style="rounded=0;whiteSpace=wrap;html=1;fontSize=22;fillColor=#ffe6cc;strokeColor=#d79b00;fontStyle=0" parent="1" vertex="1">
          <mxGeometry x="401" y="350" width="90" height="60" as="geometry" />
        </mxCell>
        <mxCell id="4X8OJqOi4j79PQFWo-uC-34" value="" style="edgeStyle=elbowEdgeStyle;elbow=horizontal;endArrow=classic;html=1;curved=0;rounded=0;endSize=8;startSize=8;entryX=0;entryY=0.5;entryDx=0;entryDy=0;strokeWidth=2;fontStyle=0" parent="1" target="kKCmZU7g9CsREEnNZsZf-8" edge="1">
          <mxGeometry width="50" height="50" relative="1" as="geometry">
            <mxPoint x="120" y="380" as="sourcePoint" />
            <mxPoint x="160" y="490" as="targetPoint" />
          </mxGeometry>
        </mxCell>
        <mxCell id="BKAjRfnR_qwfkiXPqYkl-1" value="ACE Integration Server" style="swimlane;whiteSpace=wrap;html=1;fillColor=#eeeeee;strokeColor=#36393d;" parent="1" vertex="1">
          <mxGeometry x="610" y="189" width="370" height="180" as="geometry" />
        </mxCell>
        <mxCell id="BKAjRfnR_qwfkiXPqYkl-2" value="&lt;font style=&quot;font-size: 18px;&quot;&gt;Tea REST Application&lt;/font&gt;" style="rounded=1;whiteSpace=wrap;html=1;fillColor=#ffe6cc;strokeColor=#d79b00;" parent="BKAjRfnR_qwfkiXPqYkl-1" vertex="1">
          <mxGeometry x="12" y="40" width="250" height="50" as="geometry" />
        </mxCell>
        <mxCell id="BKAjRfnR_qwfkiXPqYkl-3" value="&lt;font style=&quot;font-size: 18px;&quot;&gt;Configuration&lt;/font&gt;" style="rounded=1;whiteSpace=wrap;html=1;fillColor=#d5e8d4;strokeColor=#82b366;" parent="BKAjRfnR_qwfkiXPqYkl-1" vertex="1">
          <mxGeometry x="142" y="110" width="120" height="60" as="geometry" />
        </mxCell>
        <mxCell id="BKAjRfnR_qwfkiXPqYkl-5" value="&lt;font style=&quot;font-size: 18px;&quot;&gt;JDBC Driver&lt;/font&gt;" style="rounded=1;whiteSpace=wrap;html=1;fillColor=#ffe6cc;strokeColor=#d79b00;" parent="BKAjRfnR_qwfkiXPqYkl-1" vertex="1">
          <mxGeometry x="12" y="110" width="120" height="60" as="geometry" />
        </mxCell>
        <mxCell id="BKAjRfnR_qwfkiXPqYkl-4" value="&lt;font style=&quot;font-size: 18px;&quot;&gt;Libraries&lt;/font&gt;" style="rounded=1;whiteSpace=wrap;html=1;fillColor=#ffe6cc;strokeColor=#d79b00;" parent="BKAjRfnR_qwfkiXPqYkl-1" vertex="1">
          <mxGeometry x="279" y="40" width="80" height="130" as="geometry" />
        </mxCell>
        <mxCell id="mT0i5QPfRz2XoGuQts4a-2" value="ACEaaS" style="swimlane;whiteSpace=wrap;html=1;fillColor=#e1d5e7;strokeColor=#9673a6;startSize=31;fontSize=18;" parent="1" vertex="1">
          <mxGeometry x="599" y="139" width="401" height="500" as="geometry" />
        </mxCell>
        <mxCell id="mT0i5QPfRz2XoGuQts4a-11" style="edgeStyle=orthogonalEdgeStyle;rounded=0;orthogonalLoop=1;jettySize=auto;html=1;exitX=0.5;exitY=0;exitDx=0;exitDy=0;strokeWidth=3;" parent="mT0i5QPfRz2XoGuQts4a-2" source="mT0i5QPfRz2XoGuQts4a-3" edge="1">
          <mxGeometry relative="1" as="geometry">
            <mxPoint x="83" y="230" as="targetPoint" />
          </mxGeometry>
        </mxCell>
        <mxCell id="mT0i5QPfRz2XoGuQts4a-3" value="BAR File" style="rounded=0;whiteSpace=wrap;html=1;fontSize=18;fillColor=#ffe6cc;strokeColor=#d79b00;" parent="mT0i5QPfRz2XoGuQts4a-2" vertex="1">
          <mxGeometry x="23" y="260" width="120" height="60" as="geometry" />
        </mxCell>
        <mxCell id="mT0i5QPfRz2XoGuQts4a-6" value="Integration Runtime (IR YAML)" style="rounded=0;whiteSpace=wrap;html=1;fontSize=18;fillColor=#f5f5f5;strokeColor=#666666;fontColor=#333333;" parent="mT0i5QPfRz2XoGuQts4a-2" vertex="1">
          <mxGeometry x="11" y="350" width="180" height="60" as="geometry" />
        </mxCell>
        <mxCell id="mT0i5QPfRz2XoGuQts4a-4" value="Policy&amp;nbsp;&lt;span style=&quot;background-color: initial;&quot;&gt;Project&amp;nbsp;&lt;/span&gt;&lt;div&gt;&lt;span style=&quot;background-color: initial;&quot;&gt;(JDBC Policy)&lt;/span&gt;&lt;/div&gt;" style="rounded=0;whiteSpace=wrap;html=1;fontSize=18;fillColor=#d5e8d4;strokeColor=#82b366;" parent="mT0i5QPfRz2XoGuQts4a-2" vertex="1">
          <mxGeometry x="211" y="350" width="180" height="60" as="geometry" />
        </mxCell>
        <mxCell id="mT0i5QPfRz2XoGuQts4a-8" value="serverconf YAML&amp;nbsp;&lt;div&gt;(set server defaults)&lt;/div&gt;" style="rounded=0;whiteSpace=wrap;html=1;fontSize=18;fillColor=#d5e8d4;strokeColor=#82b366;" parent="mT0i5QPfRz2XoGuQts4a-2" vertex="1">
          <mxGeometry x="11" y="420" width="180" height="60" as="geometry" />
        </mxCell>
        <mxCell id="mT0i5QPfRz2XoGuQts4a-7" value="setdbparms&amp;nbsp;&lt;div&gt;(JDBC credentials)&lt;/div&gt;" style="rounded=0;whiteSpace=wrap;html=1;fontSize=18;fillColor=#d5e8d4;strokeColor=#82b366;" parent="mT0i5QPfRz2XoGuQts4a-2" vertex="1">
          <mxGeometry x="211" y="420" width="180" height="60" as="geometry" />
        </mxCell>
        <mxCell id="mT0i5QPfRz2XoGuQts4a-13" value="" style="endArrow=classic;html=1;rounded=0;entryX=0.5;entryY=1;entryDx=0;entryDy=0;exitX=0.75;exitY=0;exitDx=0;exitDy=0;targetPerimeterSpacing=4;strokeColor=default;startArrow=none;startFill=0;endFill=1;strokeWidth=3;" parent="1" source="mT0i5QPfRz2XoGuQts4a-6" target="BKAjRfnR_qwfkiXPqYkl-1" edge="1">
          <mxGeometry width="50" height="50" relative="1" as="geometry">
            <mxPoint x="520" y="639" as="sourcePoint" />
            <mxPoint x="570" y="589" as="targetPoint" />
          </mxGeometry>
        </mxCell>
        <mxCell id="mT0i5QPfRz2XoGuQts4a-16" value="" style="endArrow=classic;html=1;rounded=0;exitX=0.25;exitY=0;exitDx=0;exitDy=0;targetPerimeterSpacing=4;strokeColor=default;startArrow=none;startFill=0;endFill=1;strokeWidth=3;" parent="1" source="mT0i5QPfRz2XoGuQts4a-4" edge="1">
          <mxGeometry width="50" height="50" relative="1" as="geometry">
            <mxPoint x="785" y="568" as="sourcePoint" />
            <mxPoint x="850" y="369" as="targetPoint" />
          </mxGeometry>
        </mxCell>
        <mxCell id="mT0i5QPfRz2XoGuQts4a-17" value="Configuration Tasks&lt;div&gt;(optional; usually run once)&lt;/div&gt;" style="rounded=1;whiteSpace=wrap;html=1;fontSize=22;fontStyle=0;labelPosition=center;verticalLabelPosition=top;align=center;verticalAlign=bottom;" parent="1" vertex="1">
          <mxGeometry x="190" y="510" width="310" height="120" as="geometry" />
        </mxCell>
        <mxCell id="mT0i5QPfRz2XoGuQts4a-18" value="Create configurations" style="rounded=0;whiteSpace=wrap;html=1;fontSize=22;fillColor=#d5e8d4;strokeColor=#82b366;fontStyle=0" parent="1" vertex="1">
          <mxGeometry x="202" y="535" width="150" height="65" as="geometry" />
        </mxCell>
        <mxCell id="mT0i5QPfRz2XoGuQts4a-22" value="" style="edgeStyle=elbowEdgeStyle;elbow=horizontal;endArrow=classic;html=1;curved=0;rounded=0;endSize=8;startSize=8;entryX=0;entryY=0.5;entryDx=0;entryDy=0;strokeWidth=2;fontStyle=0" parent="1" target="mT0i5QPfRz2XoGuQts4a-17" edge="1">
          <mxGeometry width="50" height="50" relative="1" as="geometry">
            <mxPoint x="120" y="390" as="sourcePoint" />
            <mxPoint x="200" y="390" as="targetPoint" />
            <Array as="points">
              <mxPoint x="160" y="480" />
            </Array>
          </mxGeometry>
        </mxCell>
        <mxCell id="kIJjQ-XqpcRudHC3WBvM-8" style="edgeStyle=orthogonalEdgeStyle;rounded=0;orthogonalLoop=1;jettySize=auto;html=1;entryX=0;entryY=0.5;entryDx=0;entryDy=0;strokeWidth=3;" edge="1" parent="1" source="kIJjQ-XqpcRudHC3WBvM-6" target="mT0i5QPfRz2XoGuQts4a-6">
          <mxGeometry relative="1" as="geometry">
            <Array as="points">
              <mxPoint x="540" y="568" />
              <mxPoint x="540" y="519" />
            </Array>
          </mxGeometry>
        </mxCell>
        <mxCell id="kIJjQ-XqpcRudHC3WBvM-6" value="Create runtime" style="rounded=0;whiteSpace=wrap;html=1;fontSize=22;fillColor=#f5f5f5;fontColor=#333333;strokeColor=#666666;fontStyle=0" vertex="1" parent="1">
          <mxGeometry x="360" y="535" width="130" height="65" as="geometry" />
        </mxCell>
        <mxCell id="kIJjQ-XqpcRudHC3WBvM-10" style="edgeStyle=orthogonalEdgeStyle;rounded=0;orthogonalLoop=1;jettySize=auto;html=1;exitX=0.5;exitY=1;exitDx=0;exitDy=0;strokeWidth=3;" edge="1" parent="1" source="mT0i5QPfRz2XoGuQts4a-18">
          <mxGeometry relative="1" as="geometry">
            <mxPoint x="610" y="610" as="targetPoint" />
            <Array as="points">
              <mxPoint x="277" y="620" />
              <mxPoint x="540" y="620" />
              <mxPoint x="540" y="610" />
            </Array>
          </mxGeometry>
        </mxCell>
      </root>
    </mxGraphModel>
  </diagram>
</mxfile>
